<?xml version="1.0" encoding="UTF-8"?>
<svg version="1.1" xmlns="http://www.w3.org/2000/svg" width="720" height="720">
<path d="M0 0 C237.6 0 475.2 0 720 0 C720 237.6 720 475.2 720 720 C482.4 720 244.8 720 0 720 C0 482.4 0 244.8 0 0 Z " fill="#412FDE" transform="translate(0,0)"/>
<path d="M0 0 C11.29300138 8.57962372 18.76863003 19.70518036 21.30859375 33.75390625 C22.9105768 51.49411118 20.28798254 68.46094644 8.62109375 82.56640625 C0.12926765 91.47798041 -11.24322551 97.76059631 -23.65649414 98.12280273 C-38.30200714 98.1654215 -50.40470461 95.03022933 -61.44140625 84.87890625 C-73.35612977 72.23998825 -77.45107265 57.06308811 -77.0078125 40.01171875 C-76.67977659 33.88746673 -74.99144564 28.41321369 -72.69140625 22.75390625 C-72.34078125 21.8721875 -71.99015625 20.99046875 -71.62890625 20.08203125 C-65.76777119 6.97588203 -55.17257006 -1.40289796 -42.05078125 -6.484375 C-27.96082761 -11.03328387 -12.25345413 -8.02812512 0 0 Z " fill="#4230DE" transform="translate(261.69140625,543.24609375)"/>
<path d="M0 0 C1.79244141 0.01740234 1.79244141 0.01740234 3.62109375 0.03515625 C5.41740234 0.04869141 5.41740234 0.04869141 7.25 0.0625 C8.17683594 0.07410156 9.10367188 0.08570313 10.05859375 0.09765625 C14.39665833 8.2170082 17.84866694 16.652524 21.30053711 25.17236328 C23.06083166 29.51661164 24.83433504 33.85547479 26.60546875 38.1953125 C26.97236816 39.09541046 27.33926758 39.99550842 27.71728516 40.92288208 C31.2765416 49.64895485 34.88536026 58.35413931 38.50259399 67.05630493 C40.61430437 72.13831174 42.72089843 77.22244142 44.82817078 82.30628967 C46.67185698 86.753977 48.51675182 91.20115595 50.36376953 95.64746094 C52.26085615 100.21563477 54.15232115 104.78610151 56.04003906 109.3581543 C56.75608564 111.08989386 57.47399797 112.82086324 58.19384766 114.55102539 C59.18622523 116.93696932 60.17202887 119.32552601 61.15625 121.71484375 C61.45221573 122.42216644 61.74818146 123.12948914 62.05311584 123.85824585 C63.2461086 126.77140076 64.05859375 128.91640736 64.05859375 132.09765625 C58.77859375 132.09765625 53.49859375 132.09765625 48.05859375 132.09765625 C42.88078661 121.22426125 38.55787799 110.34586685 34.05859375 99.09765625 C13.92859375 99.09765625 -6.20140625 99.09765625 -26.94140625 99.09765625 C-31.17746321 109.58274045 -31.17746321 109.58274045 -35.40795898 120.07006836 C-35.93843706 121.38012749 -36.46910432 122.69011005 -37 124 C-37.27557739 124.68582153 -37.55115479 125.37164307 -37.83508301 126.07824707 C-39.82733445 130.98358445 -39.82733445 130.98358445 -40.94140625 132.09765625 C-43.63795479 132.17085246 -46.30832083 132.19008162 -49.00390625 132.16015625 C-49.76251953 132.15564453 -50.52113281 132.15113281 -51.30273438 132.14648438 C-53.18232496 132.13466305 -55.06187524 132.11672703 -56.94140625 132.09765625 C-56.32806919 126.85171096 -54.63864943 122.52490189 -52.57421875 117.72265625 C-52.22791916 116.902173 -51.88161957 116.08168976 -51.52482605 115.23634338 C-50.77273228 113.45619404 -50.01773333 111.67726992 -49.26016235 109.89944458 C-47.6259082 106.06379154 -46.0058881 102.22218225 -44.38526917 98.38075256 C-43.53277595 96.36007539 -42.67960525 94.33968391 -41.82579041 92.31956482 C-37.64437741 82.41902371 -33.53790335 72.48814422 -29.44470215 62.5508728 C-27.47580149 57.77126806 -25.50342408 52.99309853 -23.53125 48.21484375 C-23.14885162 47.28824448 -22.76645325 46.3616452 -22.37246704 45.40696716 C-18.69362351 36.49416765 -15.00972788 27.5834856 -11.31039429 18.6791687 C-10.65245193 17.09451965 -9.99539528 15.50950254 -9.33926392 13.92410278 C-8.44598237 11.76612156 -7.5496135 9.60945039 -6.65234375 7.453125 C-6.15009277 6.24293701 -5.6478418 5.03274902 -5.13037109 3.78588867 C-3.50743285 0.11644863 -3.50743285 0.11644863 0 0 Z " fill="#FBFBFE" transform="translate(231.94140625,365.90234375)"/>
<path d="M0 0 C12 0 12 0 15.9375 3.875 C17.31746035 5.899322 18.66768025 7.94401016 20 10 C21.49131956 12.08847487 23.00830685 14.15698513 24.52539062 16.22680664 C26.2234165 18.5491214 27.90318737 20.88364326 29.578125 23.22265625 C32.85624799 27.80030756 36.14306571 32.37157369 39.4375 36.9375 C39.97076904 37.67677734 40.50403809 38.41605469 41.0534668 39.17773438 C45.00275 44.64296978 48.99367308 50.07648406 53 55.5 C57.56984024 61.68815412 62.1180147 67.8908853 66.625 74.125 C67.09035156 74.76759766 67.55570312 75.41019531 68.03515625 76.07226562 C73.75590303 84.00224388 79.36048533 92.01068755 85 100 C85.33 67 85.66 34 86 0 C91.28 0 96.56 0 102 0 C102 43.56 102 87.12 102 132 C90 132 90 132 86.44140625 128.6953125 C85.44081807 127.19845404 84.48288776 125.67246513 83.5625 124.125 C82.47114469 122.46022072 81.37866507 120.79617804 80.28515625 119.1328125 C79.74262207 118.27719727 79.20008789 117.42158203 78.64111328 116.54003906 C76.08226395 112.57957069 73.28952321 108.79966047 70.5 105 C69.41538175 103.50092883 68.33205105 102.00092526 67.25 100.5 C66.71375 99.7575 66.1775 99.015 65.625 98.25 C60.75 91.5 60.75 91.5 59.12524414 89.25024414 C58.04121584 87.7493445 56.95706858 86.24853078 55.87280273 84.74780273 C53.17412345 81.01226033 50.47748688 77.27527746 47.78515625 73.53515625 C41.55652181 64.88794627 35.28368994 56.27629994 28.93188477 47.71899414 C24.85178804 42.20792278 20.93627534 36.62325048 17 31 C16.67 64.33 16.34 97.66 16 132 C10.72 132 5.44 132 0 132 C0 88.44 0 44.88 0 0 Z " fill="#FCFCFE" transform="translate(317,366)"/>
<path d="M0 0 C1.00740234 -0.01160156 2.01480469 -0.02320313 3.05273438 -0.03515625 C18.12397884 0.02299646 32.81650125 5.29449567 44.0625 15.375 C44.81273437 16.02082031 45.56296875 16.66664063 46.3359375 17.33203125 C56.89382806 27.04312854 65.39969469 42.45675801 66.20776367 56.98706055 C66.23251941 60.01231868 66.24815639 63.03713311 66.25 66.0625 C66.26224609 67.10083984 66.27449219 68.13917969 66.28710938 69.20898438 C66.32242083 87.98290859 59.9161319 104.12149745 46.8359375 117.68359375 C32.4454824 131.13333006 14.74497261 136.19992825 -4.65625 135.6875 C-20.2057735 134.85150411 -34.9401639 127.11816038 -45.9375 116.375 C-60.12472504 99.99945083 -65.59772008 79.95952767 -64.15625 58.59423828 C-62.34669162 40.23610696 -52.63639017 24.25900628 -38.625 12.625 C-26.87448031 3.94517361 -14.49670689 -0.16631021 0 0 Z M-36.9375 32.375 C-46.9369915 46.28632961 -49.68072732 61.90896876 -47.51171875 78.6640625 C-44.27654366 93.39105587 -36.71947159 106.09381152 -23.9140625 114.31640625 C-12.20839657 120.56043114 1.60254595 122.62487845 14.59375 119.53515625 C28.22442781 114.71573802 37.98346479 106.19015387 44.8125 93.5625 C51.20299987 79.74805309 52.8303577 62.85639671 48 48.25 C45.54829323 41.89346812 42.46323125 36.56584166 38.0625 31.375 C37.15177734 30.29798828 37.15177734 30.29798828 36.22265625 29.19921875 C27.5796443 19.81386222 16.42541099 15.30326902 3.87109375 14.05859375 C-12.10960341 13.46244259 -26.75825778 20.06776965 -36.9375 32.375 Z " fill="#FBFBFE" transform="translate(232.9375,520.625)"/>
<path d="M0 0 C5.28 0 10.56 0 16 0 C16 20.13 16 40.26 16 61 C20.09649203 56.91042099 20.09649203 56.91042099 24.0859375 52.73046875 C24.62049561 52.15594971 25.15505371 51.58143066 25.70581055 50.98950195 C26.25664307 50.39484131 26.80747559 49.80018066 27.375 49.1875 C27.9522583 48.56512451 28.5295166 47.94274902 29.12426758 47.30151367 C32.56478419 43.58152484 35.95107451 39.82468537 39.26171875 35.98828125 C41.47256489 33.45947072 43.73596443 30.98127436 46 28.5 C49.44957184 24.71743782 52.8546501 20.90436031 56.2109375 17.0390625 C59.0630669 13.78838227 61.97701022 10.59366017 64.88671875 7.39453125 C67.08859851 5.06074341 67.08859851 5.06074341 68.59765625 2.21875 C71.92777695 -0.85687367 74.40757049 -0.51546753 78.81640625 -0.43945312 C79.78449219 -0.39755859 80.75257813 -0.35566406 81.75 -0.3125 C82.73355469 -0.28994141 83.71710938 -0.26738281 84.73046875 -0.24414062 C87.1551947 -0.18528805 89.57681983 -0.10313431 92 0 C88.15398408 5.32511982 84.0909662 10.2455141 79.5625 15 C78.41192581 16.2231738 77.26217836 17.44712583 76.11328125 18.671875 C75.5713916 19.24873047 75.02950195 19.82558594 74.47119141 20.41992188 C72.14072577 22.92287136 69.89935209 25.49828699 67.6640625 28.0859375 C63.40767677 32.98178024 59.01961553 37.76351301 54.671875 42.578125 C48.01034683 49.96471747 41.46016662 57.43687811 35 65 C36.33999498 68.006818 37.79845291 69.99762609 40.1875 72.25 C42.65382217 74.64051309 44.96589829 77.06840583 47.1875 79.6875 C50.29615326 83.30139713 53.61114646 86.65286826 57 90 C60.8989733 93.8512064 64.60824316 97.76421751 68.16015625 101.94140625 C70.9549116 105.06844674 73.96027833 107.98109593 76.94458008 110.92504883 C80.25243066 114.20550048 83.34816717 117.60038558 86.36328125 121.1484375 C88.67451123 123.76305089 91.17967877 126.1588173 93.71484375 128.5546875 C95 130 95 130 95 132 C91.64675035 132.20504349 88.29512597 132.32818195 84.9375 132.4375 C83.52307617 132.52547852 83.52307617 132.52547852 82.08007812 132.61523438 C75.14641546 132.7843481 75.14641546 132.7843481 71.86645508 130.5402832 C70.08832649 128.77528945 68.53644367 126.97689772 67 125 C65.94150688 123.76738114 64.87945435 122.53780215 63.8125 121.3125 C63.24144531 120.64863281 62.67039063 119.98476563 62.08203125 119.30078125 C59.48522214 116.43113666 56.752891 113.71900406 54 111 C50.12269981 107.17013581 46.43756377 103.27948679 42.90625 99.125 C39.88412588 95.75607475 36.63683116 92.61662649 33.41772461 89.43725586 C29.98056658 86.02614102 26.71194067 82.52863328 23.59765625 78.81640625 C21.5092305 76.44203468 19.23597434 74.23597434 17 72 C16.67 91.8 16.34 111.6 16 132 C10.72 132 5.44 132 0 132 C0 88.44 0 44.88 0 0 Z " fill="#FDFCFE" transform="translate(64,522)"/>
<path d="M0 0 C5.28 0 10.56 0 16 0 C16 38.94 16 77.88 16 118 C41.08 118 66.16 118 92 118 C92 122.62 92 127.24 92 132 C61.64 132 31.28 132 0 132 C0 88.44 0 44.88 0 0 Z " fill="#FFFFFF" transform="translate(64,366)"/>
<path d="M0 0 C2.47841867 3.02601562 3.93891116 5.94255243 5.36010742 9.57885742 C5.80033737 10.69648972 6.24056732 11.81412201 6.69413757 12.96562195 C7.39274651 14.76734612 7.39274651 14.76734612 8.10546875 16.60546875 C8.59393419 17.85308286 9.08289937 19.10050143 9.57234192 20.34773254 C10.59389685 22.95457443 11.6114265 25.5629366 12.62573242 28.17260742 C13.92840394 31.5240993 15.23795692 34.87284579 16.55010509 38.22063732 C17.80004693 41.41050843 19.04666621 44.60167438 20.29296875 47.79296875 C20.76478073 49.00019089 21.23659271 50.20741302 21.72270203 51.45121765 C22.15347549 52.55939346 22.58424896 53.66756927 23.02807617 54.80932617 C23.40985519 55.78987473 23.79163422 56.77042328 24.1849823 57.78068542 C25 60 25 60 25 61 C8.83 61 -7.34 61 -24 61 C-17.05028574 42.46742865 -17.05028574 42.46742865 -14.4921875 35.87890625 C-14.19941925 35.12383286 -13.906651 34.36875946 -13.60501099 33.59080505 C-12.99905353 32.02917474 -12.39260313 30.46773561 -11.78564453 28.90649414 C-10.86654945 26.54074833 -9.95082973 24.17371255 -9.03515625 21.80664062 C-6.18460255 14.45832246 -3.30440886 7.15955253 0 0 Z " fill="#4331DE" transform="translate(235,388)"/>
</svg>
